<?xml version="1.0" encoding="UTF-8"?>
<svg version="1.1" xmlns="http://www.w3.org/2000/svg" width="80" height="80">
<path d="M0 0 C0.66 0 1.32 0 2 0 C2.20505665 3.83253129 2.32820828 7.66363766 2.4375 11.5 C2.52547852 13.11648438 2.52547852 13.11648438 2.61523438 14.765625 C2.73349109 20.30679663 2.60527857 24.06741531 -1.078125 28.390625 C-2.35179095 29.62929215 -3.65950621 30.83398214 -5 32 C-5.60191162 32.55171875 -6.20382324 33.1034375 -6.82397461 33.671875 C-8.57910039 35.24203549 -10.37054337 36.75205102 -12.1875 38.25 C-15.93775516 41.37855511 -19.61293465 44.47005596 -23 48 C-22.236875 47.484375 -21.47375 46.96875 -20.6875 46.4375 C-19.800625 45.963125 -18.91375 45.48875 -18 45 C-14.7091012 46.09696627 -14.03203283 46.84801856 -11.875 49.4375 C-8.27307575 53.70273364 -4.51823184 57.80504546 -0.72265625 61.8984375 C1 64 1 64 1 66 C0.319375 65.71125 -0.36125 65.4225 -1.0625 65.125 C-13.45839149 60.3776373 -22.0473511 61.42586577 -33.953125 66.70703125 C-35.63619046 67.46964875 -37.31840237 68.23415134 -39 69 C-42.31928978 70.49819086 -45.64074871 71.99111541 -48.96630859 73.4753418 C-51.2189084 74.482897 -53.46676996 75.50112065 -55.70947266 76.53051758 C-56.74120605 76.99482178 -57.77293945 77.45912598 -58.8359375 77.9375 C-60.22111572 78.56978516 -60.22111572 78.56978516 -61.63427734 79.21484375 C-64 80 -64 80 -67 79 C-66.38253906 78.33355469 -65.76507813 77.66710937 -65.12890625 76.98046875 C-60.03380226 71.43556867 -55.14069175 65.80111144 -50.40625 59.94140625 C-47.69414455 56.6261215 -44.91897722 53.37127178 -42.125 50.125 C-38.23028317 45.59965713 -34.3504007 41.06312852 -30.5 36.5 C-27.15750864 32.53879729 -23.79688981 28.59427463 -20.41601562 24.66577148 C-10.9090651 13.62156049 -10.9090651 13.62156049 -1.875 2.19140625 C-1.25625 1.46824219 -0.6375 0.74507813 0 0 Z " fill="#21285A" transform="translate(77,0)"/>
<path d="M0 0 C4.18087152 -0.07441989 8.3613873 -0.12872818 12.54272461 -0.16479492 C13.96369141 -0.1798376 15.38461213 -0.20027704 16.80541992 -0.22631836 C18.85346886 -0.26290347 20.9009015 -0.27977097 22.94921875 -0.29296875 C24.79519653 -0.31653442 24.79519653 -0.31653442 26.6784668 -0.34057617 C31.57075414 0.16105858 34.62827738 2.28353456 37.89453125 5.84765625 C38.37470703 6.37037109 38.85488281 6.89308594 39.34960938 7.43164062 C39.83236328 7.96982422 40.31511719 8.50800781 40.8125 9.0625 C41.56563477 9.87557617 41.56563477 9.87557617 42.33398438 10.70507812 C46 14.7401892 46 14.7401892 46 17 C46.66 17 47.32 17 48 17 C46.33248852 20.94139078 43.77289351 23.7892812 41 27 C37.2963269 25.38512831 34.4937023 23.04653728 31.375 20.5 C21.81513268 12.91002777 10.91458814 7.37945628 0 2 C0 1.34 0 0.68 0 0 Z " fill="#D41F27" transform="translate(1,14)"/>
<path d="M0 0 C1.32 0.66 2.64 1.32 4 2 C1.4345406 4.5654594 -0.47686668 4.54046087 -4 5 C-2.68 3.35 -1.36 1.7 0 0 Z " fill="#1E2465" transform="translate(14,75)"/>
</svg>
